# xmcd
#
# Track frame offsets:
#	150
#	15328
#	31252
#	54544
#	73101
#	94367
#	112488
#	123173
#	141025
#	161293
#	189665
#
# Disc length: 2722 seconds
#
# Revision: 0
# Processed by: cddbd v1.5.2PL0 Copyright (c) Steve Scherf et al.
# Submitted via: EZCDAudioConverter 1.1.0.1
#
DISCID=950aa00b
DTITLE=Maria Woodford - Bad Dog Blues
DYEAR=2012
DGENRE=Blues
TTITLE0=Fumblin' with the Blues
TTITLE1=Way Behind the Sun
TTITLE2=Bad Dog Blues
TTITLE3=Do I Move You
TTITLE4=Going Away Party
TTITLE5=Give It Up
TTITLE6=False Teeth
TTITLE7=Sugar in My Bowl
TTITLE8=Tinsel Town
TTITLE9=Ball and Chain
TTITLE10=Nobody's Fault
EXTD=
EXTT0=
EXTT1=
EXTT2=
EXTT3=
EXTT4=
EXTT5=
EXTT6=
EXTT7=
EXTT8=
EXTT9=
EXTT10=
PLAYORDER=
